<svg id="Layer_1" data-name="Layer 1" xmlns="http://www.w3.org/2000/svg" viewBox="0 0 200 200"><defs><style>.cls-1{fill:#e6c45c;stroke:#f8efd2;stroke-miterlimit:10;stroke-width:6px;}.cls-2{fill:#575756;}</style></defs><circle class="cls-1" cx="100" cy="100" r="94.22"/><path class="cls-2" d="M134.71,157.55c-3.06-.74-5.1-2.78-6.82-5.27-.92-1.33-2-2.53-2.93-3.84a2.31,2.31,0,0,0-2.14-1.07q-32.31,0-64.64,0c-4.69,0-8.29-1.92-10.32-6.22a11.14,11.14,0,0,1-1-4.54q-.09-31.47,0-62.94a12.36,12.36,0,0,1,3.61-8.94q9.3-9.38,18.68-18.67a12.41,12.41,0,0,1,9-3.63q24.92,0,49.81,0c6.22,0,10.79,4.74,10.79,11.09q0,36.08,0,72.16V127l.22,0,1.69-3c1-1.76,2-3.54,3-5.27A8.35,8.35,0,0,1,158.22,127c-1.66,3.14-3.46,6.21-5.23,9.3a1.66,1.66,0,0,1-2.36.81,1.68,1.68,0,0,1-.52-2.53c1.69-3,3.44-6.05,5.11-9.1a5,5,0,0,0-5.3-7.25A5,5,0,0,0,146.3,121q-4.52,8-9.06,16c-.14.26-.28.52-.44.78a1.71,1.71,0,0,1-3.09.17c-1.63-2.06-3.2-4.16-4.84-6.21a5,5,0,0,0-8.9,2.42,4.69,4.69,0,0,0,1,3.69c3.68,4.77,7.35,9.56,11.09,14.29a4.94,4.94,0,0,0,8.44-.63c1.94-3.33,3.8-6.7,5.69-10.06.13-.23.26-.46.4-.68a1.68,1.68,0,1,1,2.93,1.62c-.78,1.46-1.61,2.88-2.42,4.31-.9,1.6-1.89,3.15-2.69,4.8-1.47,3.06-3.61,5.28-7,6.06Zm.17-23.62.34,0a12.57,12.57,0,0,0,.15-1.36q0-39.51,0-79a7.31,7.31,0,0,0-7.68-7.7H80.37a4.87,4.87,0,0,0-5.27,5.24c0,3,0,5.92,0,8.88A10.71,10.71,0,0,1,64.3,70.73c-2.88,0-5.77,0-8.65,0-3.56,0-5.48,1.94-5.48,5.49v59.9c0,4.8,3.07,7.89,7.86,7.89H120.3c.32,0,.63,0,1.11-.07-2.3-3.26-5.53-5.92-4.75-10.52a21,21,0,0,1-2.11,0,1.61,1.61,0,0,1-1.48-1.8,1.55,1.55,0,0,1,1.63-1.52c.82,0,1.65.05,2.47,0a1.94,1.94,0,0,0,1.2-.55,8.4,8.4,0,0,1,13.27.27C132.73,131.16,133.8,132.55,134.88,133.93ZM71.72,48.72,53,67.37H63.59c5.15,0,8.13-3,8.13-8.18Z"/><path class="cls-2" d="M101.53,98H72.21a4.61,4.61,0,0,1-1.12,0,1.67,1.67,0,0,1,.14-3.3,8.47,8.47,0,0,1,1,0h59.21c1.3,0,2.08.67,2.07,1.7s-.8,1.67-2.11,1.67Z"/><path class="cls-2" d="M83.78,124.72H66.7a4.17,4.17,0,0,1-1.12-.06,1.67,1.67,0,0,1,.12-3.27,5.23,5.23,0,0,1,1.12,0H101.2c1.4,0,2.2.63,2.2,1.69s-.81,1.68-2.21,1.68C95.39,124.73,89.58,124.72,83.78,124.72Z"/><path class="cls-2" d="M83.9,130.09h16.85a10.47,10.47,0,0,1,1.12,0,1.55,1.55,0,0,1,1.5,1.54,1.52,1.52,0,0,1-1.19,1.68,5,5,0,0,1-1.33.12q-17,0-34,0a4.62,4.62,0,0,1-1.44-.16,1.36,1.36,0,0,1-1-1.75,3.54,3.54,0,0,1,1.35-1.4c.26-.18.73,0,1.1,0Z"/><path class="cls-2" d="M83.77,107.27h-17a5.61,5.61,0,0,1-1.23-.07c-.78-.17-1.36-.72-1.22-1.49a3.1,3.1,0,0,1,1-1.63c.3-.26.93-.17,1.41-.17h34c.19,0,.37,0,.56,0,1.21.06,2,.72,2,1.7s-.75,1.66-2,1.66C95.53,107.28,89.65,107.27,83.77,107.27Z"/><path class="cls-2" d="M83.77,112.62H101c.45,0,1-.08,1.3.17a3,3,0,0,1,1.07,1.63A1.42,1.42,0,0,1,102,116a6.91,6.91,0,0,1-1.12,0h-34a8.47,8.47,0,0,1-1,0,1.55,1.55,0,0,1-1.49-1.54,1.57,1.57,0,0,1,1.37-1.76,5.23,5.23,0,0,1,1.12,0Z"/><path class="cls-2" d="M69.34,83c0-1.91,0-3.52,0-5.12a5.1,5.1,0,0,1,.06-1.11,1.55,1.55,0,0,1,1.78-1.35A1.47,1.47,0,0,1,72.67,77q.12,5.57.15,11.11a1.84,1.84,0,0,1-3.44,1q-1.86-2.67-3.7-5.36l-.86-1.16V87.1c0,.45,0,.9,0,1.35a1.62,1.62,0,0,1-1.58,1.69,1.59,1.59,0,0,1-1.76-1.63c0-3.81-.06-7.63,0-11.45a2.29,2.29,0,0,1,1.22-1.51c.72-.36,1.43.06,1.91.75q1.94,2.82,3.89,5.63C68.74,82.23,69,82.52,69.34,83Z"/><path class="cls-2" d="M92.82,90.15a7.36,7.36,0,1,1,7.45-7.28A7.38,7.38,0,0,1,92.82,90.15Zm0-3.37a4,4,0,1,0-3.92-4.07A4,4,0,0,0,92.77,86.78Z"/><path class="cls-2" d="M119.8,70c-.26-.28-.7-.76-1.15-1.23a6.07,6.07,0,0,0-.93-.9c-.53-.34-1.16-.53-1.68-.88a1.62,1.62,0,0,1-.59-2.25,1.8,1.8,0,0,1,2.26-.66,10.7,10.7,0,0,0,2.65.65,1.6,1.6,0,0,0,1.69-1.49c.19-.92-.43-1.33-1.18-1.64a27.3,27.3,0,0,1-3.07-1.37,4.31,4.31,0,0,1-.06-7.49,2.6,2.6,0,0,0,.88-1.13c.32-.78.84-1.39,1.65-1.21a4.54,4.54,0,0,1,1.59,1.16c.33.29.55.68.87,1a5.4,5.4,0,0,0,.78.44,1.73,1.73,0,0,1,.71,2.49c-.53.82-1.39,1-2.47.39a3,3,0,0,0-1-.37c-.69-.09-1.39,0-1.67.77s.44,1.09,1,1.35c.71.34,1.44.62,2.17.9a4.59,4.59,0,0,1,3.24,4.18,5,5,0,0,1-2.61,4.76,1.61,1.61,0,0,0-1,1.3C121.74,69.55,121.06,69.94,119.8,70Z"/><path class="cls-2" d="M114.57,90.15a7.3,7.3,0,0,1-6.85-4.73,7.37,7.37,0,0,1,10.21-9.22,4.61,4.61,0,0,1,.77.46,1.67,1.67,0,0,1,.52,2.27,1.6,1.6,0,0,1-2.25.57,4.35,4.35,0,0,0-3.66-.49,4,4,0,0,0-2.61,4.75,4,4,0,0,0,4.53,2.95,4.09,4.09,0,0,0,1.63-.89c1-.75,1.78-.83,2.5-.14a1.72,1.72,0,0,1-.15,2.58A6,6,0,0,1,114.57,90.15Z"/><path class="cls-2" d="M125.53,78.87v2.27c.84,0,1.66,0,2.47,0a1.74,1.74,0,0,1,1.88,1.67c0,1-.73,1.67-1.95,1.69h-2.39V86.8h2.52c1.42,0,2.17.62,2.16,1.71s-.74,1.64-2.09,1.65-2.78,0-4.16,0a1.68,1.68,0,0,1-1.85-1.91q0-5.39,0-10.79A1.71,1.71,0,0,1,124,75.51c1.42,0,2.85,0,4.27,0,1.21,0,1.94.7,1.91,1.73a1.7,1.7,0,0,1-1.89,1.63C127.43,78.89,126.54,78.87,125.53,78.87Z"/><path class="cls-2" d="M79.94,83.76c.77-2.32,1.46-4.37,2.15-6.43a8.33,8.33,0,0,1,.29-.84,1.65,1.65,0,0,1,2.14-.94,1.54,1.54,0,0,1,1,2q-1.84,5.71-3.77,11.39a1.56,1.56,0,0,1-1.83,1.17,2.61,2.61,0,0,1-1.7-1.16c-1.42-3.74-2.7-7.53-4-11.32a1.61,1.61,0,0,1,1-2.1,1.63,1.63,0,0,1,2.16,1.07C78.25,78.87,79,81.17,79.94,83.76Z"/><path class="cls-2" d="M55.32,82.72c0-1.79,0-3.59,0-5.38,0-1.19.6-1.86,1.6-1.9a1.67,1.67,0,0,1,1.76,1.87q0,5.49,0,11A1.67,1.67,0,0,1,57,90.15c-1,0-1.67-.69-1.68-1.93C55.3,86.39,55.32,84.55,55.32,82.72Z"/><path class="cls-2" d="M102.31,82.69c0-1.76,0-3.52,0-5.27,0-1.27.6-2,1.63-2s1.73.71,1.74,2q0,5.33,0,10.65c0,1.32-.64,2-1.72,2s-1.64-.72-1.65-2.08C102.3,86.28,102.31,84.48,102.31,82.69Z"/><path class="cls-2" d="M59.14,94.59c1.72,0,3.45,0,5.17,0,1.23,0,2,.65,2,1.64S65.54,98,64.26,98Q59.15,98,54,98c-1.21,0-2-.67-2-1.66s.76-1.7,2.06-1.71C55.77,94.58,57.45,94.59,59.14,94.59Z"/><path class="cls-2" d="M117.07,107.26c-.79,0-1.58,0-2.36,0a1.56,1.56,0,0,1-1.64-1.62,1.49,1.49,0,0,1,1.47-1.67c1.75-.08,3.52-.08,5.27,0a1.47,1.47,0,0,1,1.42,1.71,1.52,1.52,0,0,1-1.58,1.56c-.86.05-1.72,0-2.58,0Z"/><path class="cls-2" d="M117.22,116c-.82,0-1.65,0-2.47,0a1.67,1.67,0,1,1,0-3.34q2.41-.08,4.83,0a1.67,1.67,0,1,1-.08,3.34c-.75,0-1.5,0-2.25,0Z"/><path class="cls-2" d="M117.22,121.36c.79,0,1.57,0,2.35,0a1.67,1.67,0,0,1,0,3.34c-1.6,0-3.21,0-4.81,0a1.68,1.68,0,1,1,0-3.35C115.58,121.33,116.4,121.36,117.22,121.36Z"/></svg>