<svg id="Layer_1" data-name="Layer 1" xmlns="http://www.w3.org/2000/svg" viewBox="0 0 200 200"><defs><style>.cls-1{fill:#e6c45c;stroke:#f8efd2;stroke-miterlimit:10;stroke-width:6px;}.cls-2{fill:#575756;}</style></defs><circle class="cls-1" cx="100" cy="100" r="94.22"/><path class="cls-2" d="M53.26,134.38a2,2,0,1,0,1.89,3.56c.87-.46,5.64-1.43,10.26-2.17,4-.64,7.61-1.1,8.28-.9l18.46,5.44a20.62,20.62,0,0,0,18.77-1.81l47.92-25.28-.93-1.78.94,1.79.23-.15c6.22-3.63,6.83-6.36,3.88-8.63-1.86-1.43-6-2.14-11-2.71h-.34c-3.83,0-12,4-19.28,7.6-4.92,2.43-9.38,4.63-11.12,5l-5.89,1.11a1.4,1.4,0,0,1-1.57-.64,13.05,13.05,0,0,0-2.8-2.46c-5-3.24-10.65-3-16-2.68l-1.15.06c-1.41.07-2.89.11-4.47.11s-3,0-4.39-.15c-2.07-.15-4-1.51-6.05-2.91-.52-.36-1-.72-1.48-1C68.79,100,65.23,101.91,59,105.2c-1.63.87-3.47,1.85-5.6,2.75a2,2,0,0,0,1.56,3.7c2.37-1,4.25-2,5.92-2.88,4.87-2.59,7.66-4.07,14.28.3.55.36,1,.66,1.41,1,2.48,1.71,4.9,3.39,8.06,3.62,1.57.12,3.13.16,4.67.16s3,0,4.66-.12l1.15-.06c4.74-.24,9.75-.49,13.64,2a9.67,9.67,0,0,1,2,1.79c1.38,1.54,2.23,2.48,5.3,1.9l5.89-1.11c2.29-.43,7-2.74,12.16-5.3,6.87-3.39,14.67-7.24,17.45-7.19,4.38.49,7.83,1,8.94,1.88,0,0-1,.54-3.45,2l-.09,0h0l-47.86,25.25a2.37,2.37,0,0,0-.35.19h0a16.38,16.38,0,0,1-15.06,1.48,1.88,1.88,0,0,0-.3-.12l-.57,1.94.56-1.93L74.83,131c-1.29-.38-5.62.07-10,.78C59.8,132.59,54.47,133.73,53.26,134.38Z"/><path class="cls-2" d="M115.94,117.6a2,2,0,1,0-4,.21c.3,5.64-3.73,7.55-8.7,7.83-5.76.32-12.75-1.36-16.83-2.46a2,2,0,0,0-1,3.9c4.32,1.15,11.74,2.94,18.1,2.58C110.6,129.25,116.4,126.32,115.94,117.6Z"/><path class="cls-2" d="M56.22,102.43v38.44a2,2,0,0,1-2,2H37.34a2,2,0,0,1-2-2V102.43a2,2,0,0,1,2-2H54.2a2,2,0,0,1,2,2Zm-4,36.42v-34.4H39.36v34.4Z"/><path class="cls-2" d="M127,56.51a21.82,21.82,0,1,1-15.42,6.39A21.74,21.74,0,0,1,127,56.51Zm12.56,9.24a17.76,17.76,0,1,0,5.21,12.57A17.71,17.71,0,0,0,139.6,65.75Z"/><path class="cls-2" d="M133,83.66A5.5,5.5,0,0,1,131.39,88,4.66,4.66,0,0,1,129,89.16v1.51h-2.75V89.09a4.72,4.72,0,0,1-3-2.3,8,8,0,0,1-1-3.61l3.12-.23a4.53,4.53,0,0,0,1,2.72,1.65,1.65,0,0,0,1.34.6,2,2,0,0,0,1.7-1,2.56,2.56,0,0,0,.33-1.43,4,4,0,0,0-1.21-2.66c-.65-.61-1.62-1.52-2.9-2.74a11.91,11.91,0,0,1-2.17-2.61,6.42,6.42,0,0,1-.84-3.22,6,6,0,0,1,.79-3,4.37,4.37,0,0,1,2.87-2.17V66H129v1.39a4.53,4.53,0,0,1,2.17,1.1,5.39,5.39,0,0,1,1.68,3.7l-3.13.57a3.91,3.91,0,0,0-.75-2.08,1.52,1.52,0,0,0-1.27-.52,1.48,1.48,0,0,0-1.36.79,3,3,0,0,0-.38,1.58,4.8,4.8,0,0,0,1.27,3,12.25,12.25,0,0,0,1.43,1.36,19.64,19.64,0,0,1,1.51,1.32A11.69,11.69,0,0,1,132,80.58,6.7,6.7,0,0,1,133,83.66Z"/><path class="cls-2" d="M80.81,47.12A16.71,16.71,0,1,1,69,52a16.68,16.68,0,0,1,11.83-4.89Zm9,7.75a12.69,12.69,0,1,0,3.72,9A12.64,12.64,0,0,0,89.78,54.87Z"/><path class="cls-2" d="M85.2,67.81A4.09,4.09,0,0,1,84,71a3.54,3.54,0,0,1-1.8.87V73h-2V71.85A3.56,3.56,0,0,1,78,70.14a6,6,0,0,1-.75-2.69l2.31-.17a3.56,3.56,0,0,0,.73,2,1.24,1.24,0,0,0,1,.44A1.45,1.45,0,0,0,82.51,69a1.85,1.85,0,0,0,.25-1.06,3,3,0,0,0-.9-2l-2.16-2A9.13,9.13,0,0,1,78.09,62a4.81,4.81,0,0,1-.62-2.39,4.48,4.48,0,0,1,.58-2.26,3.27,3.27,0,0,1,2.14-1.61v-1h2v1a3.48,3.48,0,0,1,1.61.82,4,4,0,0,1,1.25,2.75l-2.33.42a3,3,0,0,0-.56-1.55,1.15,1.15,0,0,0-.95-.38,1.1,1.1,0,0,0-1,.59A2.2,2.2,0,0,0,80,59.51a3.58,3.58,0,0,0,1,2.25,8.21,8.21,0,0,0,1.06,1,12.42,12.42,0,0,1,1.12,1,8.36,8.36,0,0,1,1.37,1.76A5.06,5.06,0,0,1,85.2,67.81Z"/></svg>