<svg id="Layer_1" data-name="Layer 1" xmlns="http://www.w3.org/2000/svg" viewBox="0 0 200 200"><defs><style>.cls-1{fill:#e6c45c;stroke:#f8efd2;stroke-miterlimit:10;stroke-width:6px;}.cls-2{fill:#575756;}</style></defs><circle class="cls-1" cx="100" cy="100" r="94.22"/><path class="cls-2" d="M139.56,51.57a16.35,16.35,0,0,1,2.44,1A7.06,7.06,0,0,1,145.53,59c0,16.87,0,33.74,0,50.61a2,2,0,0,0,1.09,2.1,3.82,3.82,0,0,1,1.81,3.72c0,3.05-.07,6.1,0,9.14a15.06,15.06,0,0,0,.65,3.82c.59,2,1.45,4,1.31,6.19a3.29,3.29,0,0,1-.17,1,1.3,1.3,0,0,1-1.68.91c-.53-.2-1.28-.87-1.26-1.3.1-2.47-.94-4.62-1.6-6.89a9.91,9.91,0,0,1-.45-2.69c-.06-3.33,0-6.66,0-10,0-1.33-.25-1.58-1.51-1.6-2.64,0-2.64,0-2.64,2.59,0,3.23,0,6.45,0,9.68,0,1.28-.55,2-1.55,2s-1.63-.69-1.63-2c0-3.58,0-7.16,0-10.74,0-1.22-.27-1.49-1.48-1.51-2.68-.06-2.68-.06-2.68,2.57,0,3.08,0,6.17,0,9.25a7.52,7.52,0,0,1,0,1.06,1.42,1.42,0,0,1-1.48,1.37,1.44,1.44,0,0,1-1.61-1.35,6.27,6.27,0,0,1-.05-1.06c0-3.47,0-7,0-10.42,0-1-.4-1.42-1.38-1.43-3.07,0-2.79,0-2.78,2.68q0,4.67,0,9.35c0,1.53-.54,2.26-1.63,2.24s-1.55-.72-1.55-2.19c0-8.68,0-17.37,0-26a5.86,5.86,0,0,0-.23-1.77A1.86,1.86,0,0,0,121.1,97a1.92,1.92,0,0,0-1.89,1.45,5.87,5.87,0,0,0-.2,1.78q0,12.7,0,25.41c0,.32,0,.64,0,1-.06,1.56-1.11,2.21-2.54,1.53q-3.32-1.57-6.59-3.21c-.94-.47-1.81-.65-2.6.22a2.52,2.52,0,0,0-.21,3,6.44,6.44,0,0,0,.74.9c2.84,3.07,5.65,6.18,8.53,9.2A9.22,9.22,0,0,1,119,145c-.06,4.39,0,8.79,0,13.18a7.46,7.46,0,0,1,0,1,1.46,1.46,0,0,1-1.45,1.31,1.44,1.44,0,0,1-1.58-1.14,5.28,5.28,0,0,1-.11-1.26c0-4.36,0-8.72,0-13.08a6.16,6.16,0,0,0-1.75-4.51c-3-3.19-6-6.43-9-9.67a5.69,5.69,0,0,1-.48-7.48,4.86,4.86,0,0,1,6-1.56c1.39.62,2.74,1.32,4.11,2,.31.15.63.28,1,.45v-3.9H57.46c-5,0-7.85-2.87-7.86-7.84q0-15.9,0-31.79a6.26,6.26,0,0,1,0-1.06,1.58,1.58,0,0,1,3.13,0,5.33,5.33,0,0,1,0,1.06v32c0,3,1.51,4.49,4.52,4.49h58.42v-4.12H62.18c-2.49,0-3-.47-3-3V61.76c0-2.37.52-2.89,2.86-2.89h48.59A5.68,5.68,0,0,1,112,59a1.55,1.55,0,0,1-.14,3,7.93,7.93,0,0,1-1.38.06h-48v47.62h53.21v-7.77c-.58,0-1.2,0-1.82,0-2.68,0-4.23-1.56-4.26-4.22,0-1.81,0-3.62,0-5.42a3.87,3.87,0,0,1,4.15-4.12q7.22,0,14.45,0a3.83,3.83,0,0,1,4.16,4.18c0,1.81,0,3.62,0,5.43,0,2.61-1.56,4.11-4.19,4.15-.57,0-1.13,0-1.76,0v7.77H135V62.06H118.84c-.39,0-.89.11-1.15-.08-.49-.37-1.14-.9-1.18-1.4s.54-1.13,1-1.54c.25-.22.81-.16,1.23-.16h16.91c2,0,2.59.63,2.59,2.62V110c0,1.57.63,2,2.07,1.36a16.05,16.05,0,0,1,2-.59V59.29c0-3.07-1.48-4.53-4.58-4.53H57.37c-3.1,0-4.57,1.46-4.58,4.53q0,6.69,0,13.4a1.8,1.8,0,0,1-1,1.92,1.56,1.56,0,0,1-2.17-1.54c0-1.52,0-3,0-4.57q0-4.68,0-9.36c0-3.89,1.91-6.38,5.68-7.42a1.82,1.82,0,0,0,.27-.15ZM121,91.34c-2.34,0-4.67,0-7,0-.71,0-1.17.18-1.16,1,0,1.8,0,3.61,0,5.41,0,.66.29,1,1,1a9.33,9.33,0,0,1,1.06,0c.71.08,1-.13,1.23-.89a5.08,5.08,0,0,1,4-4,5.15,5.15,0,0,1,6.08,4c.18.71.48.94,1.15.86a3.65,3.65,0,0,1,.74,0c.85.07,1.22-.27,1.19-1.16,0-1.66,0-3.33,0-5,0-.91-.29-1.26-1.23-1.25C125.66,91.37,123.32,91.34,121,91.34Z"/><path class="cls-2" d="M67.59,92.82V89.34c0-3.44,1-4.85,4.35-6,0-2.59,0-5.21,0-7.83s1.39-4.06,4-4.07q6.75,0,13.5,0c2.7,0,4.1,1.43,4.1,4.16s0,5.16,0,7.48a25.1,25.1,0,0,1,3,1.93,4.15,4.15,0,0,1,1.34,3.24c0,1.48,0,3,0,4.5a11.11,11.11,0,0,1,1.32.18A1.56,1.56,0,0,1,99,96c-.31,0-.64,0-1,0H67.46c-.28,0-.56,0-.85,0a1.48,1.48,0,0,1-1.53-1.45,1.54,1.54,0,0,1,1.41-1.69C66.79,92.86,67.11,92.85,67.59,92.82Zm3.2,0H94.72c0-1.47,0-2.88,0-4.29a1.73,1.73,0,0,0-1.94-1.88H72.71a1.71,1.71,0,0,0-1.91,1.81C70.76,89.85,70.79,91.27,70.79,92.8Zm4.34-9.46H90.4c0-2.68,0-5.26,0-7.84,0-.58-.22-.85-.81-.85-4.57,0-9.14,0-13.71,0a1.06,1.06,0,0,0-.73.72C75.11,78,75.13,80.65,75.13,83.34Z"/><path class="cls-2" d="M121.09,73.46H130c1.26,0,2,.57,2,1.55s-.72,1.64-2,1.64H112c-1.25,0-2-.59-2-1.56s.73-1.62,2-1.63Z"/><path class="cls-2" d="M121.07,83.29h-9c-1.26,0-2-.56-2-1.53s.74-1.65,2-1.66H130a3,3,0,0,1,.42,0A1.61,1.61,0,0,1,132,81.77a1.55,1.55,0,0,1-1.7,1.51C127.23,83.3,124.15,83.29,121.07,83.29Z"/><path class="cls-2" d="M121,70c-2.86,0-5.73,0-8.59,0a4.69,4.69,0,0,1-1.06-.07,1.45,1.45,0,0,1-1.25-1.59,1.44,1.44,0,0,1,1.29-1.46,7.45,7.45,0,0,1,1.16-.06q8.53,0,17.09,0c.31,0,.63,0,.95,0A1.49,1.49,0,0,1,132,68.34,1.54,1.54,0,0,1,130.5,70a7.49,7.49,0,0,1-.95,0Z"/><path class="cls-2" d="M141.66,153.1c0-2.11-.15-4.25,0-6.35.23-2.64,2-4.63,3.42-6.71a1.36,1.36,0,0,1,2-.15,1.43,1.43,0,0,1,.47,2c-.53,1-1.12,1.89-1.72,2.8a7.13,7.13,0,0,0-1.19,4.11c0,3.22,0,6.43,0,9.65,0,1.27-.57,2-1.53,2s-1.65-.72-1.66-2c0-1.77,0-3.54,0-5.31Z"/><path class="cls-2" d="M82.68,103.68H78.43a1.6,1.6,0,1,1,0-3.18q4.35,0,8.7,0a1.63,1.63,0,0,1,1.76,1.59,1.61,1.61,0,0,1-1.76,1.58C85.65,103.7,84.16,103.68,82.68,103.68Z"/><path class="cls-2" d="M54.49,85.89c0-.46,0-.92,0-1.37A1.47,1.47,0,0,1,56,83a1.43,1.43,0,0,1,1.62,1.34,13.7,13.7,0,0,1,0,3.07A1.43,1.43,0,0,1,56,88.77a1.47,1.47,0,0,1-1.47-1.5C54.46,86.81,54.49,86.35,54.49,85.89Z"/></svg>