<svg id="Layer_1" data-name="Layer 1" xmlns="http://www.w3.org/2000/svg" viewBox="0 0 200 200"><defs><style>.cls-1{fill:#e6c45c;stroke:#f8efd2;stroke-width:6px;}.cls-1,.cls-2{stroke-miterlimit:10;}.cls-2{fill:#575756;stroke:#e6c45c;}</style></defs><circle class="cls-1" cx="100" cy="100" r="94.22"/><path class="cls-2" d="M115.34,118.88c1.71,1.3,3.2,2.29,4.49,3.48,1.46,1.36,2.72,2.93,4.12,4.36a3.57,3.57,0,0,0,1.54.93c9.79,2.29,17.64,7.29,22.69,16.19a22.93,22.93,0,0,1,2.94,10.61c.08,2.43-.83,3.35-3.24,3.35H52.39c-2.78,0-3.69-.93-3.49-3.73A24.75,24.75,0,0,1,55,139.86a36.6,36.6,0,0,1,19.19-12,4.63,4.63,0,0,0,2.26-1.47c1.91-2,3.94-4,6-5.9a13.92,13.92,0,0,1,2.26-1.37c0-1.88,0-3.92,0-6a1.3,1.3,0,0,0-.26-.8c-2.66-3-3.51-6.75-4.29-10.5a3,3,0,0,0-1.41-2.2c-3.3-2.15-5.15-7.6-4-11.36a3.86,3.86,0,0,1,.89-1.81c1.22-1,.93-2,.65-3.26-.53-2.33-.94-4.67-1.36-7a2.65,2.65,0,0,0-1.2-1.78,69.35,69.35,0,0,1-7.12-5.75c-2.57-2.53-3-5.73-1.74-9.12a19.61,19.61,0,0,1,6.07-8.24C80.73,43,92,39,104.94,40.5a42.85,42.85,0,0,1,25.94,12.56,16.13,16.13,0,0,1,4.72,8.18,7.83,7.83,0,0,1-1.53,6.62,24.2,24.2,0,0,1-7.54,6.21A2.48,2.48,0,0,0,125.14,76c-.48,2.89-1.1,5.76-1.62,8.65a2.09,2.09,0,0,0,.24,1.11c.56,1.22,1.58,2.37,1.69,3.62.38,4.3-.76,8.09-4.6,10.67a3,3,0,0,0-.88,1.54c-.88,2.7-1.7,5.42-2.56,8.12a2.18,2.18,0,0,1-.53,1c-2,1.65-1.52,3.88-1.54,6Zm2.94-34A44.25,44.25,0,0,1,81.87,85a3.69,3.69,0,0,0,.16.68c.58,1.28.22,2.09-1.07,2.69a2.38,2.38,0,0,0-1.39,3,12.84,12.84,0,0,0,1.68,4c.61.82,1.94,1.09,3.15,1.72,0-.08,0,.17,0,.42a27.86,27.86,0,0,0,3.14,10.7A14.81,14.81,0,0,0,89,109.82a2.89,2.89,0,0,1,.77,1.37c.07,3.32.09,6.65,0,10a3.39,3.39,0,0,0,1.44,2.94,14.63,14.63,0,0,0,17.6,0,3.53,3.53,0,0,0,1.46-3.07c-.06-3.11,0-6.22,0-9.33,0-1,0-1.73,1.11-2.13a2.19,2.19,0,0,0,1-1.16,35.48,35.48,0,0,0,2-4.82c.65-2.27,1-4.62,1.49-6.82a7.6,7.6,0,0,0,2.47-.87,6.74,6.74,0,0,0,2.2-5.75,1.89,1.89,0,0,0-.78-1.37C118,87.91,116.94,86.84,118.28,84.9ZM74.09,68.8l.35-.11c0-.61,0-1.21,0-1.82a7.69,7.69,0,0,1,5-7.19,55.63,55.63,0,0,1,41.15,0,7.68,7.68,0,0,1,5,7.09c0,.56,0,1.12,0,1.68a18.08,18.08,0,0,0,3.77-2.93C130.93,63.9,131,63,130,61a21,21,0,0,0-5.35-6.6,38.37,38.37,0,0,0-48.36-.8A23.67,23.67,0,0,0,70,61a3.57,3.57,0,0,0,.67,4.64C71.74,66.72,72.93,67.74,74.09,68.8Zm71.24,83.83c0-.34,0-.6-.09-.85a12.35,12.35,0,0,0-.38-1.48c-3.26-9.48-10.17-14.9-19.55-17.59a2.67,2.67,0,0,0-2.76.64c-3.19,2.75-6.45,5.43-9.7,8.12-1.63,1.36-2.72,1.34-4.26-.08-.5-.46-1-.94-1.48-1.41l-3.93-3.73-.36.13a7.29,7.29,0,0,0,0,1.87c1.12,4.06,2.3,8.11,3.46,12.16.22.76.45,1.51.66,2.21H117.9v-6.94c0-2.35.89-3.21,3.27-3.22h11.38c2.36,0,3.24.88,3.25,3.23v6.94Zm-63.22,0h11c1.43-5,2.86-9.92,4.23-14.88A5,5,0,0,0,97,136l-5.33,5.09c-1.85,1.75-2.82,1.78-4.74.18-3.27-2.73-6.53-5.47-9.83-8.16a1.91,1.91,0,0,0-1.42-.49C67,135,60.25,140,56.14,148.17a40,40,0,0,0-1.62,4.45h9.69c0-2.4,0-4.74,0-7.07,0-2.17.93-3.08,3.14-3.09h11.5c2.37,0,3.25.88,3.26,3.23ZM79.55,70.77h40.91V69.55c0-4.51,0-4.47-4.3-6-11.68-4-23.24-3.52-34.72.82A2.6,2.6,0,0,0,79.55,67C79.54,68.22,79.55,69.45,79.55,70.77ZM80.33,76a25.73,25.73,0,0,0,1.89,2.52,14.87,14.87,0,0,0,7.09,3.84,44.08,44.08,0,0,0,18.85.58c3.61-.62,7-1.79,9.68-4.48a19.92,19.92,0,0,0,1.8-2.46Zm14.12,55.42c-3.78-1.45-7.29-2.88-9.1-7l-5,4.73,8.78,7.32Zm11.11,0,5.29,5,8.2-6.84-4.43-5.1C112.72,128.61,109.23,130,105.56,131.43ZM69.43,147.6v5H76.9v-5Zm61.2.07h-7.51v5h7.51Z"/></svg>