<svg id="Layer_1" data-name="Layer 1" xmlns="http://www.w3.org/2000/svg" viewBox="0 0 200 200"><defs><style>.cls-1{fill:#e6c45c;stroke:#f8efd2;stroke-width:6px;}.cls-1,.cls-2{stroke-miterlimit:10;}.cls-2{fill:#575756;stroke:#575756;stroke-width:1.06px;}</style></defs><circle class="cls-1" cx="100" cy="100" r="94.22"/><path class="cls-2" d="M164.27,113.07a17.08,17.08,0,0,0-3.85-9.44c-.62-.76-1.33-1.46-2-2.2.07-.14.15-.3.24-.46.8-1.47,1.62-2.93,2.39-4.41a3.68,3.68,0,0,0-3.3-5.44c-3,.08-6,0-9,0a.55.55,0,0,1-.59-.36c-1.09-2.28-2.17-4.56-3.32-6.81a20.93,20.93,0,0,0-2-3.25,17.07,17.07,0,0,0-14.09-7.23c-10.68,0-21.35,0-32,0a14.88,14.88,0,0,0-4.1.58,17.77,17.77,0,0,0-11.35,9.37c-1.24,2.38-2.37,4.81-3.52,7.23a.72.72,0,0,1-.78.47c-3,0-6.09,0-9.13,0a3.54,3.54,0,0,0-3.49,4,5.1,5.1,0,0,0,.52,1.66c.81,1.58,1.69,3.14,2.53,4.69,0,0,0,.08-.05.1l-.31.3A17.09,17.09,0,0,0,62,118.64,16.86,16.86,0,0,0,67.68,128a.73.73,0,0,1,.28.47c0,3.27,0,6.55,0,9.82a10.23,10.23,0,0,0,.18,1.83A7,7,0,0,0,75,145.69c2.25,0,4.49,0,6.73,0a6.6,6.6,0,0,0,2.29-.48,6.87,6.87,0,0,0,4.43-6.28c.13-2.1,0-4.2,0-6.3v-.51h48.82v.54c0,2.05,0,4.11,0,6.17a7.09,7.09,0,0,0,7.11,6.89c2.08,0,4.17,0,6.26,0a8.27,8.27,0,0,0,1.57-.15,7.12,7.12,0,0,0,5.55-6.85c0-3.33,0-6.66,0-10a1,1,0,0,1,.4-.85,17.15,17.15,0,0,0,5.7-9.48c.19-.84.29-1.69.42-2.53v-2.4C164.32,113.32,164.28,113.2,164.27,113.07ZM149.81,93.41c2.65,0,5.29,0,7.93,0a1.42,1.42,0,0,1,1.29,2.1q-1.23,2.24-2.44,4.47s0,0-.1.07a17.66,17.66,0,0,0-4.77-2.2.52.52,0,0,1-.28-.22l-2-4.17Zm-72.56,3.5c2-4.16,4-8.35,6.08-12.47a15.41,15.41,0,0,1,9.86-8.16,14.86,14.86,0,0,1,4.15-.53c10.37,0,20.75,0,31.12,0,6.36,0,11,3.06,14,8.6,2.19,4.12,4.11,8.38,6.15,12.58a.9.9,0,0,1,.08.23H77.15A1.25,1.25,0,0,1,77.25,96.91ZM66.81,95.57a1.48,1.48,0,0,1-.12-1.28,1.2,1.2,0,0,1,1.15-.88h8.45l.09,0-2,4.17a.36.36,0,0,1-.21.19A18,18,0,0,0,69.28,100c0-.08-.1-.13-.13-.19Zm19.4,42.74A4.93,4.93,0,0,1,83,143.13a5.53,5.53,0,0,1-1.72.27c-2.06,0-4.11,0-6.17,0a4.78,4.78,0,0,1-4.86-4.69c0-2.91,0-5.83,0-8.74a1.25,1.25,0,0,1,0-.18c.7.33,1.36.66,2,.95a17,17,0,0,0,6.8,1.31h7.05a3.29,3.29,0,0,1,0,.41C86.22,134.42,86.23,136.36,86.21,138.31Zm69.31.42a4.79,4.79,0,0,1-4.86,4.69c-2,0-4-.06-6,0a4.86,4.86,0,0,1-5.1-4.87c0-2.1,0-4.2,0-6.3,0,0,0-.08,0-.19H147a17.26,17.26,0,0,0,8.17-2.09l.27-.14h.1a1.29,1.29,0,0,1,0,.19C155.54,132.93,155.56,135.83,155.52,138.73Zm-6.09-9.17a18.38,18.38,0,0,1-2.86.23H79.23a15.19,15.19,0,0,1-5.93-29.29,14.27,14.27,0,0,1,5.18-1q17.2,0,34.42,0t34.51,0a13.34,13.34,0,0,1,6.59,1.7,14.85,14.85,0,0,1,7.91,11.32A15.17,15.17,0,0,1,149.43,129.56Z"/><path class="cls-2" d="M86.22,107.71c-3.29-.15-6.6-.16-9.89,0A6.54,6.54,0,0,0,70,114a6.66,6.66,0,0,0,6.75,7h4.33c1.35,0,2.71,0,4.07,0a9.37,9.37,0,0,0,1.83-.17,6.64,6.64,0,0,0,5.22-7A6.5,6.5,0,0,0,86.22,107.71Zm-.46,11c-1.54,0-3.09,0-4.63,0h0c-1.51,0-3,0-4.54,0a4.37,4.37,0,0,1-.12-8.73c3.11-.06,6.23,0,9.34,0a4.36,4.36,0,0,1,0,8.72Z"/><path class="cls-2" d="M149.75,107.7c-1.87-.12-3.77-.06-5.65-.06-1.54,0-3.09,0-4.62.07a6.66,6.66,0,0,0,.9,13.27h4.24c1.29,0,2.57,0,3.86,0a11.92,11.92,0,0,0,2.08-.18,6.64,6.64,0,0,0-.81-13.1Zm-.48,11c-1.54,0-3.09,0-4.63,0s-3,0-4.58,0a4.37,4.37,0,0,1,0-8.73c3.07,0,6.15,0,9.21,0a4.37,4.37,0,0,1,0,8.73Z"/><path class="cls-2" d="M123,110.06a3.39,3.39,0,0,0-.55,0H103.32a2.55,2.55,0,0,0-.55,0,1.12,1.12,0,0,0-.94,1.27,1.17,1.17,0,0,0,1.3,1H122.5a3.73,3.73,0,0,0,.47,0,1.12,1.12,0,0,0,1-1.1A1.1,1.1,0,0,0,123,110.06Z"/><path class="cls-2" d="M123.05,116.92a2.88,2.88,0,0,0-.59,0H103.34a2.88,2.88,0,0,0-.59,0,1.11,1.11,0,0,0-.92,1.25,1.17,1.17,0,0,0,1.32,1h19.37a2.43,2.43,0,0,0,.47,0,1.14,1.14,0,0,0,.06-2.24Z"/><path class="cls-2" d="M76.35,49.16c-1.06.3-2.11.6-3.16.92a1.17,1.17,0,0,0-.48.28,11.44,11.44,0,0,0-3.11,4,1.39,1.39,0,0,1-1.15.93,2.89,2.89,0,0,0-1.69,1c-.74.79-1.5,1.56-2.29,2.3a2.21,2.21,0,0,0-.83,1.62,3.94,3.94,0,0,1-.13.61,3.53,3.53,0,0,1-.46,0,1.37,1.37,0,0,0-1.29.54c-.72.77-1.49,1.49-2.26,2.26l-1.42-1.41a5.26,5.26,0,0,0-7.67.19q-6.58,7.2-13.13,14.41a5.91,5.91,0,0,0,.2,8.34c1.69,1.7,3.38,3.41,5.08,5.1a5.82,5.82,0,0,0,8.38.19Q58,84,65.06,77.43a5.33,5.33,0,0,0,.16-8c-.38-.38-.79-.73-1.25-1.15.86-.84,1.65-1.58,2.4-2.36A2.92,2.92,0,0,0,67,65a1.87,1.87,0,0,1,1.31-1.33,1.06,1.06,0,0,0,.87-1.33c0-.24,0-.39.31-.41a2.87,2.87,0,0,0,2.06-1.18,4.86,4.86,0,0,1,.68-.68A1.75,1.75,0,0,0,73,58.45c0-.29.14-.38.42-.43s.9-.05,1.25-.43c.84-.87,1.71-1.72,2.56-2.59a1.49,1.49,0,0,0,.32-.56c.31-1.08.6-2.16.88-3.26A1.61,1.61,0,0,0,76.35,49.16Zm-11.87,21a4.29,4.29,0,0,1-.13,6.48l-14.12,13a5.11,5.11,0,0,1-3.8,1.38,4.32,4.32,0,0,1-2.83-1.26c-1.86-1.84-3.73-3.68-5.54-5.57a4.8,4.8,0,0,1,0-6.71c3.55-3.92,7.13-7.83,10.69-11.74l2.31-2.53a4.22,4.22,0,0,1,6.39-.16ZM77.38,51c0,.13-.06.26-.1.38-.82,3.14-.81,3.16-3.26,5.31a2.59,2.59,0,0,1-1.18.35c-.76.15-.82.15-.83.91a1.8,1.8,0,0,1-.73,1.54.43.43,0,0,0-.1.09A3.29,3.29,0,0,1,68.76,61a.61.61,0,0,0-.61.78.87.87,0,0,1-.71,1.12,1.63,1.63,0,0,0-1.18,1.22,3.05,3.05,0,0,1-1,1.43c-.66.63-1.31,1.29-1.93,1.91l-3.13-3.06c.8-.78,1.58-1.57,2.39-2.33a1,1,0,0,1,.6-.13c1.21,0,1.24,0,1.4-1.2a2.35,2.35,0,0,1,.78-1.54c.77-.72,1.47-1.5,2.24-2.22a2.18,2.18,0,0,1,1-.58,2.4,2.4,0,0,0,2-1.63s.06-.1.08-.15a10,10,0,0,1,2.63-3.35.87.87,0,0,1,.37-.22l2.86-.83C77.22,50,77.56,50.33,77.38,51Z"/><path class="cls-2" d="M55.55,68.41a3.55,3.55,0,0,0-1.44-.86,3.32,3.32,0,0,0-3.42,1.07c-2.9,3.1-5.77,6.23-8.64,9.35a4,4,0,0,0-1,2.68A3.14,3.14,0,0,0,41.94,83c.93,1,1.84,1.92,2.83,2.82a3.9,3.9,0,0,0,1.54.85,3.74,3.74,0,0,0,3.58-1.06c1.5-1.38,3-2.78,4.46-4.17s3.17-2.94,4.73-4.44a3.39,3.39,0,0,0,0-5.06C57.87,70.81,56.76,69.55,55.55,68.41ZM47.64,85.65A2.22,2.22,0,0,1,45.46,85c-.84-.85-1.65-1.74-2.54-2.54a2.58,2.58,0,0,1-.25-3.6c.52-.66,1.12-1.27,1.64-1.85l6.44,6.32C49.73,84.19,49,85.35,47.64,85.65Zm4-3.09-6.48-6.37,3.64-3.94,6.77,6.64Zm6.79-9.83a2.29,2.29,0,0,1,.1,3.36,4.31,4.31,0,0,1-.37.37L56.4,78.08l-6.86-6.72c.77-.79,1.47-1.63,2.29-2.32a2.14,2.14,0,0,1,3.09.2Z"/><path class="cls-2" d="M54.58,66.86A1.93,1.93,0,1,0,52.63,65,1.92,1.92,0,0,0,54.58,66.86Zm0-2.8a.88.88,0,0,1,.86.87.85.85,0,0,1-.84.87.87.87,0,0,1-.89-.88A.88.88,0,0,1,54.56,64.06Z"/></svg>