<svg id="Layer_1" data-name="Layer 1" xmlns="http://www.w3.org/2000/svg" viewBox="0 0 200 200"><defs><style>.cls-1{fill:#e6c45c;stroke:#f8efd2;stroke-miterlimit:10;stroke-width:6px;}.cls-2{fill:#575756;}</style></defs><circle class="cls-1" cx="100" cy="100" r="94.22"/><path class="cls-2" d="M94.92,149.78c-2.25-.36-4.55-.54-6.75-1.1C69.45,143.85,57.53,132,53.89,113.06,50.47,95.28,56.49,80.36,70.64,69a42.61,42.61,0,0,1,24.44-9.19l.83,4-7.17,5.12c1.34,1.13,1.46,2.69,1.66,4.2a1.82,1.82,0,0,1-1.2,2c-1.68.77-3.35,1.56-5,2.41a2.37,2.37,0,0,0-.93,1.07c-.51,1.09-.92,2.23-1.41,3.45l.69-.41c1.05-.62,2.11-1.21,3.14-1.85,2.28-1.42,4.27-1.75,6.42.55,1.25,1.34,3.26,1.95,4.88,3,1.33.83,2.58,1.81,3.91,2.65a2.24,2.24,0,0,0,1.39.29c3.18-.4,3.69.06,3.45,3.24-.26,3.48-3,5.16-6.49,4-.62-.2-1.23-.46-1.84-.69C96.49,94.58,96,94.75,94.24,94L91,92.67c-1.62-.66-1.79-.91-1.81-2.62v-1a20.13,20.13,0,0,0-3.51,1,10.29,10.29,0,0,0-2.82,2.09c-1.38,1.41-2.63,3-3.9,4.48a8.69,8.69,0,0,0-1.62,5,10,10,0,0,0,2.33,8.11,2,2,0,0,0,2,.88c1.31-.22,2.63-.4,4-.51,4.29-.36,6,1.08,6.47,5.32a5,5,0,0,0,.67,2,9.72,9.72,0,0,1,1.18,9,5.08,5.08,0,0,0,.16,2.9c.66,2.29,1.48,4.54,2.26,6.86a4.08,4.08,0,0,0,4.84-3.41,7.66,7.66,0,0,1,.75-1.52c.1-.2.28-.46.22-.63-.44-1.3.23-2.21,1-3.06a5.61,5.61,0,0,1,1.32-1.17,2,2,0,0,0,1.06-2.63c-.24-.93-.21-1.92-.5-2.83a4.68,4.68,0,0,1,1-4.51c1.46-1.91,2.79-3.9,4.18-5.86.25-.36.47-.73.76-1.17a8.75,8.75,0,0,1-1.65-.79,6.14,6.14,0,0,1-1.73-1.63c-.79-1.35-.3-2.29,1.2-2.74a26.94,26.94,0,0,0,3.55-1.2c1.51-.67,1.74-1.38.93-2.8s-1.91-3-2.83-4.49a11.89,11.89,0,0,1-1.06-2.07,1.61,1.61,0,0,1,1.84-2.27c3,.46,6,.8,9,1.47,1.22.28,2.24,1.34,3.43,1.9,1.39.66,1.63,1.87,1.86,3.17.29,1.59.62,3.17,1,5,1-1.91,1.92-3.59,2.81-5.27a11.2,11.2,0,0,1,1.16-2.13,2.47,2.47,0,0,1,1.67-.92,2,2,0,0,1,1.36,1.17c1,2.51,1.81,5.06,2.69,7.61,0,.13.1.26.26.63.22-1.75.35-3.26.62-4.74.17-.93.6-1.8.85-2.72a2.68,2.68,0,0,0,.06-1.16,38.05,38.05,0,0,0-5.29-13.22L135,79.09a10.67,10.67,0,0,1,.67.84,45.12,45.12,0,0,1-25.3,68.12,83.85,83.85,0,0,1-8.25,1.53l-1.19.2ZM90.12,64l-.21-.42c-2.35.74-4.75,1.34-7,2.23a41.8,41.8,0,0,0-25.78,47.53A2,2,0,0,0,58.46,115c1.77.74,3.5,1.56,5.25,2.35,2.28,1,2.43,1.29,2.15,3.8a10.46,10.46,0,0,1-.39,1.83c-.4,1.46-.89,2.89-1.24,4.36a2.78,2.78,0,0,0,.37,2.61c10.48,13.05,24.1,18.72,40.52,15.91s27.39-12.82,32.81-28.68a34.6,34.6,0,0,0,1.79-10.33c-1.05.4-2,.85-3.08,1.16-1.61.48-2.31.07-2.87-1.51l-2.16-6.21c-.88,1.64-1.74,3.1-2.46,4.63a5.66,5.66,0,0,1-2.45,2.6c-1.48.86-2.57.41-2.91-1.29-.48-2.35-1.05-4.69-1.35-7.06-.25-2-1.69-2.69-3.11-3.17a33.83,33.83,0,0,0-5.39-.9c.35.55.62.93.85,1.33a28.61,28.61,0,0,1,1.85,3.39,4.16,4.16,0,0,1-1.82,5.54c-.65.42-1.35.74-2,1.11,1.63,1.92,1.78,2.76.49,5a26.86,26.86,0,0,1-2.9,4.31c-1.77,2.1-2.77,4.29-1.73,7,.06.17,0,.38.06.55.77,2.41-.1,4.18-2.17,5.46a1.76,1.76,0,0,0-.91,2.45,1.61,1.61,0,0,1-.66,2,3.47,3.47,0,0,0-1,1.21c-1.28,2.82-3.23,4.74-6.48,5-.84.06-1.69.06-2.54,0-1.25,0-1.72-.53-2-1.77-.37-1.76-.84-3.5-1.31-5.23a18.83,18.83,0,0,1-.82-2.51c-.18-1.59-.58-3.34-.12-4.77a7.1,7.1,0,0,0-.74-6.1,12.65,12.65,0,0,1-1.26-3.7c-.34-1.73-1-2.41-2.77-2.24a36.45,36.45,0,0,0-3.61.51,4.54,4.54,0,0,1-5.06-1.87c-1-1.49-2-3-2.86-4.59a3.6,3.6,0,0,1-.35-1.6c0-1.63-.08-3.26,0-4.88a10,10,0,0,1,3.07-7.13A14.35,14.35,0,0,0,79,91.62a12.82,12.82,0,0,1,11-5.74c1.87,0,2.3.35,2.41,2.18s.1,1.88,2,2.38c.32-1.25,1.25-1.47,2.32-1.2s1.87.68,2.82.94a8,8,0,0,0,2.15.33c.28,0,.56-.44.84-.68-.8-.19-1.4,0-2-.15A3.92,3.92,0,0,1,99,88.91c-1-.75-1.81-1.7-2.84-2.36-1.71-1.08-3.75-1.73-5.24-3s-3-1.29-4.8-.58a30.26,30.26,0,0,1-6.29,1.61c-1.57.25-2.35-1-1.73-2.54.23-.57.64-1.08.89-1.65a18.09,18.09,0,0,0,1.26-3.27,2.29,2.29,0,0,1,1.32-1.85c2-.93,4-1.93,6-2.93-1.3-.67-1.65-1.88-2-3.1-.41-1.5-.24-1.94,1-2.8ZM61.47,124l.34-.06c.25-1,.54-1.89.73-2.85a1,1,0,0,0-.34-.89c-.88-.47-1.82-.84-2.73-1.25l-.18.18Z"/><path class="cls-2" d="M138.29,57.17a34.37,34.37,0,0,1-9.87,22.9,64.2,64.2,0,0,1-7.22,6,2.9,2.9,0,0,1-3.53.15c-8.63-5.61-15-13-17.52-23.17-1.56-6.18-1.09-12.2,2.52-17.66C107.58,38,118.52,33.2,128,38.43,135.17,42.4,138.15,48.79,138.29,57.17Zm-3.1-.28c-.12-1.29-.15-2.59-.38-3.85-1.17-6.48-4.81-11-11.1-13s-13.88.75-18,6.46c-3.52,4.89-3.92,10.34-2.46,16,2.32,9,8,15.58,15.52,20.67a1.24,1.24,0,0,0,1.14,0,37.59,37.59,0,0,0,4-3C130.75,73.91,134.69,66.25,135.19,56.89Z"/><path class="cls-2" d="M118.93,47.3a8.63,8.63,0,1,1-8.72,8.31A8.56,8.56,0,0,1,118.93,47.3Z"/></svg>