<svg id="Layer_1" data-name="Layer 1" xmlns="http://www.w3.org/2000/svg" viewBox="0 0 200 200"><defs><style>.cls-1{fill:#e6c45c;stroke:#f8efd2;stroke-miterlimit:10;stroke-width:6px;}.cls-2{fill:#575756;}</style></defs><circle class="cls-1" cx="100" cy="100" r="94.22"/><path class="cls-2" d="M152.06,90.58,143.2,99.4c-2.67,2.66-2.66,2.66-5.51.49l-10.07,10.24c2.58,5.51,1.09,8.86-4.87,10.39-1.18,4.34-2.22,5.39-6.4,6.3-.46,3.64-2.48,5.9-6.25,6.28-1.85,7-6.88,8.33-11.86,3.32-1.4-1.41-2.64-3-3.91-4.43-6.23,4.86-10.92,3.5-12.44-3.3-3.76-.46-6.06-2.59-6.47-6.56-3.41-.47-5.73-2-6.35-5.59A2,2,0,0,0,68,115.35c-6.19-2.53-7.21-6.69-2.61-11.69L61.88,100c-1.8,2.27-3.26,1.63-4.9-.17-2.51-2.76-5.18-5.38-7.91-7.93-1.6-1.51-1.43-2.6.07-4.08Q62.11,75,74.93,62c1.74-1.76,2.9-1.53,4.49.12,4.46,4.63,9.07,9.12,13.56,13.71a2.69,2.69,0,0,0,3.16.82c2.57-.74,5.33-.84,7.87-1.63a18.47,18.47,0,0,0,6.39-3.07c3.44-2.9,6.49-6.27,9.69-9.46,2.54-2.51,2.72-2.52,5.18-.07q12.44,12.45,24.88,24.89c.6.6,1.27,1.15,1.91,1.72ZM89.92,122.14c3,1,4.68,2.8,5.1,5.8a3.52,3.52,0,0,0,1,1.71c1.68,1.76,3.43,3.45,5.15,5.17,1.42,1.42,3,1.89,4.55.34s.91-3-.42-4.34c-1.65-1.66-3.41-3.23-4.91-5-.49-.59-.31-1.74-.44-2.64.91.15,2.08,0,2.69.5,1.79,1.49,3.37,3.25,5,4.91,1.36,1.36,2.88,1.76,4.34.32s1.07-3-.29-4.34-2.86-2.79-4.22-4.25c-.89-.94-2.63-1.91-1.2-3.39,1.61-1.66,2.57.28,3.57,1.19,1.4,1.29,2.71,2.69,4.06,4s3,1.92,4.52.3.87-3-.47-4.35c-1.66-1.65-3.42-3.23-4.91-5-.48-.58-.23-1.77-.32-2.68.84.13,1.89,0,2.46.45a53.17,53.17,0,0,1,4.1,4c2.51,2.51,4,2.87,5.48,1.33s1-3-1.34-5.31c-3.8-3.81-7.7-7.53-11.37-11.46s-8.47-6-13.07-8.31c-.89-.46-2.67,0-3.62.68a34.15,34.15,0,0,0-4.11,4c-2.92,2.81-6.71,3-9.28.44s-2.57-6.36.3-9.26,5.69-5.52,8.5-8.24L87.46,75,64.16,98.22l11.59,8.56c5.52-2,9,.52,9.19,7.22C88.79,115.18,90.51,117.81,89.92,122.14Zm23.17-46.76c-3.45,1.09-6.64,2.79-9.92,3-8.46.57-14,5.6-19.08,11.43a2.72,2.72,0,0,0,.28,4,2.79,2.79,0,0,0,4,.16,25.69,25.69,0,0,0,2.25-2.18c5.67-5.67,6.87-5.82,13.84-1.71l2,1.19C111,94,115.74,96,121.18,95.9c.71,0,1.44,1,2.16,1.62-.69.51-1.32,1.34-2.06,1.46a25.38,25.38,0,0,1-4.14.07l7.72,7.84,9.8-9.9ZM77.32,65l-25.06,25,7.17,7L84.38,72Zm70.26,25.28L122.71,65.34c-2.31,2.23-4.83,4.68-6.95,6.74l24.9,25ZM78.67,109.35c-1.8,0-6.45,4.47-6.3,6.27a3.72,3.72,0,0,0,1.39,2.55,3.11,3.11,0,0,0,2.84.09,22.7,22.7,0,0,0,4.6-4.53A2.83,2.83,0,0,0,78.67,109.35Zm3.1,15.87c2-.08,5.19-3.29,5-5.07a2.86,2.86,0,0,0-3.06-2.88c-1.85,0-5,3.25-4.87,5.08A2.78,2.78,0,0,0,81.77,125.22Zm7.19.23a3.7,3.7,0,0,0-3.61,3.27,2.92,2.92,0,0,0,3.11,3,3.26,3.26,0,0,0,3.18-3.4A2.65,2.65,0,0,0,89,125.45Zm-19.9-13.36a3.07,3.07,0,0,0,2.87-3.2A2.64,2.64,0,0,0,69,106a2.94,2.94,0,0,0-3.07,3.16C65.92,111,67,112,69.06,112.09Z"/></svg>