<svg id="Layer_1" data-name="Layer 1" xmlns="http://www.w3.org/2000/svg" viewBox="0 0 200 200"><defs><style>.cls-1{fill:#e6c45c;stroke:#f8efd2;stroke-miterlimit:10;stroke-width:6px;}.cls-2{fill:#575756;}</style></defs><circle class="cls-1" cx="100" cy="100" r="94.22"/><path class="cls-2" d="M93.92,142.81a7.85,7.85,0,0,0-1,0H89.18v-1.07c0-3.94,0-7.87,0-11.81A4,4,0,0,0,85,125.65c-1.45,0-2.9,0-4.35,0-3,0-4.54,1.58-4.54,4.55,0,3.81,0,7.63,0,11.45v1.14H65c-2,0-2.83-.79-2.83-2.85V71.62H85.54a19.36,19.36,0,0,0,17.53,21.26V94q0,5.51,0,11a4,4,0,0,0,.12,1.14,1.3,1.3,0,0,0,2.48-.16,4.48,4.48,0,0,0,.06-1v-12c.74-.1,1.36-.15,2-.25a19.2,19.2,0,0,0,15.72-22.74A18.53,18.53,0,0,0,119,61a1.35,1.35,0,0,0-2-.27c-.61.56-.58,1.3.1,2.11A16.38,16.38,0,0,1,121,76.1,16.51,16.51,0,1,1,104,57.21a17,17,0,0,1,8.37,1.93,1.34,1.34,0,0,0,2-.48,1.33,1.33,0,0,0-.78-1.87,12.34,12.34,0,0,0-2.27-1c-1.64-.48-3.3-.84-5-1.25h-3.55a45.1,45.1,0,0,0-5.69,1.58A18.5,18.5,0,0,0,86.36,68a1.12,1.12,0,0,1-1.29.92c-8.69,0-17.39,0-26.09,0-.67,0-1.48,0-1.62-.73a6,6,0,0,1,.16-2.57c.08-.26.91-.45,1.4-.45,4.11,0,8.22,0,12.33,0H83.32a5.17,5.17,0,0,0,1,0,1.21,1.21,0,0,0,1-1.33,1.18,1.18,0,0,0-1.07-1.22,6.27,6.27,0,0,0-1.06,0c-7.9,0-15.8,0-23.7,0-2.36,0-4.08.67-5,3v3.2c.84,2.28,2.52,3.23,5,3V140c0,3.52,2,5.47,5.5,5.47q14,0,28.05,0a7.09,7.09,0,0,0,.8,0,1.31,1.31,0,0,0,1.26-1.35A1.29,1.29,0,0,0,93.92,142.81Zm-7.4-.06H78.8c0-.31,0-.62,0-.94V130.28c0-1.61.37-2,2-2,1.41,0,2.83,0,4.25,0,1,0,1.49.48,1.49,1.38C86.53,134,86.52,138.34,86.52,142.75Z"/><path class="cls-2" d="M124.61,115.7c3-2.73,5.9-5.47,8.85-8.2.27-.26.56-.5.94-.82,0,.29,0,.46.06.62a4,4,0,0,0,8-.51c0-3.1,0-6.21,0-9.31a3.9,3.9,0,0,0-3.71-4c-3.31-.09-6.63-.07-9.94,0A3.94,3.94,0,0,0,125,96.79a4,4,0,0,0,2.55,4.39l.67.25-6.85,6.35-.84-.68c-1.44-1.19-2.85-2.4-4.31-3.56a3.76,3.76,0,0,0-5,0q-4.87,4.47-9.59,9.1a3.62,3.62,0,0,0-.81,4,3.78,3.78,0,0,0,3.08,2.61,4,4,0,0,0,3.63-1.2l6.27-6c.12,0,.19,0,.23.09l4.51,3.73C120.67,117.59,122.63,117.54,124.61,115.7Zm-12.54-5.63q-3,2.84-6,5.69a5.48,5.48,0,0,1-.74.63,1.22,1.22,0,0,1-1.68-.21,1.26,1.26,0,0,1-.11-1.64,2.17,2.17,0,0,1,.35-.39q4.38-4.17,8.76-8.31a1.34,1.34,0,0,1,2.12-.07c1.64,1.35,3.27,2.72,4.91,4.08a2.29,2.29,0,0,0,3.47-.08c2.8-2.59,5.59-5.19,8.4-7.77a1.84,1.84,0,0,0,.71-2.19,1.8,1.8,0,0,0-2-1c-.41,0-.82,0-1.24,0a1.3,1.3,0,0,1-1.41-1.28A1.34,1.34,0,0,1,129,96.11c.41,0,.82,0,1.24,0h7.81c1.25,0,1.71.47,1.71,1.72,0,1.45,0,2.9,0,4.35s0,3,0,4.44c0,1-.52,1.62-1.36,1.6s-1.28-.6-1.29-1.59q0-1,0-2a1.74,1.74,0,0,0-3.08-1.34q-5.52,5.15-11.06,10.26c-1.22,1.13-1.58,1.13-2.86.06-1.48-1.23-3-2.47-4.44-3.69S113.32,108.89,112.07,110.07Z"/><path class="cls-2" d="M145.45,116.78a3.1,3.1,0,0,0-3.38-3.36c-2.4,0-4.79,0-7.19,0a3.1,3.1,0,0,0-3.46,3.45c0,4.17,0,8.34,0,12.52s0,8.46,0,12.69a3.1,3.1,0,0,0,3.37,3.37c2.43,0,4.85,0,7.28,0a3.12,3.12,0,0,0,3.38-3.37Zm-3.72,26c-2.24-.05-4.49,0-6.74,0-.7,0-.92-.23-.92-.92q0-12.47,0-24.93c0-.67.24-.88.88-.88,2.28,0,4.56,0,6.83,0,.77,0,1,.23,1,1,0,4.14,0,8.29,0,12.43s0,8.16,0,12.24C142.81,142.58,142.54,142.82,141.73,142.81Z"/><path class="cls-2" d="M125.16,119.3c-2.39,0-4.79,0-7.18,0a3.09,3.09,0,0,0-3.45,3.45c0,3.19,0,6.39,0,9.58s0,6.51,0,9.76a3.09,3.09,0,0,0,3.38,3.36c2.39,0,4.79,0,7.18,0a3.15,3.15,0,0,0,3.47-3.46q0-9.63,0-19.26A3.11,3.11,0,0,0,125.16,119.3Zm.75,22.53c0,.72-.23,1-1,1-2.25,0-4.49,0-6.74,0-.76,0-1-.21-1-1,0-3.14,0-6.27,0-9.4s0-6.33,0-9.49c0-.72.21-1,.95-1q3.42.06,6.83,0c.76,0,1,.29,1,1Q125.88,132.39,125.91,141.83Z"/><path class="cls-2" d="M111,78.39c.32-3.66-1.92-5.48-5.07-6.44V65.68a3.9,3.9,0,0,1,.57.18,10.53,10.53,0,0,1,.93.52c.84.54,1.56.48,2-.18a1.32,1.32,0,0,0-.49-2c-1-.56-2-1-3.06-1.5-.21-1.92-.47-2.46-1.37-2.38-1.79.15-1.2,1.63-1.39,2.66l-.6.21a5.3,5.3,0,0,0-3.73,4.73,4.4,4.4,0,0,0,2.67,4.85c1.54.67,1.84,1.62,1.74,3.13-.13,1.9,0,3.82,0,6-1-.41-1.81-.7-2.58-1.1-1-.52-1.72-.48-2.18.23s-.23,1.55.84,2.07,2.49,1,3.92,1.58c.11.83-.4,2.4,1.29,2.4,1.89,0,1.19-1.72,1.43-2.78C108.89,83.42,110.73,81.5,111,78.39Zm-7.87-7.73c-1-.43-1.71-1-1.68-2.15a2.9,2.9,0,0,1,1.68-2.7Zm2.77,4.22a2.9,2.9,0,0,1,2.47,2.75,3.68,3.68,0,0,1-2.47,3.77Z"/><path class="cls-2" d="M108.34,125.17q-3.72,0-7.45,0a3,3,0,0,0-3.25,3.28q0,6.82,0,13.65a3.08,3.08,0,0,0,3.39,3.34q3.56,0,7.09,0c2.32,0,3.55-1.23,3.56-3.56,0-2.18,0-4.37,0-6.56s0-4.55,0-6.83A3.1,3.1,0,0,0,108.34,125.17Zm.68,16.64c0,.7-.2,1-1,1-2.28,0-4.56-.05-6.83,0-.79,0-1-.31-1-1,0-2.19,0-4.38,0-6.57s0-4.26,0-6.38c0-.75.19-1.06,1-1q3.38.06,6.74,0c.8,0,1,.28,1,1C109,133.17,109,137.49,109,141.81Z"/><path class="cls-2" d="M97.84,112.86A3.85,3.85,0,0,0,94.16,109a50.14,50.14,0,0,0-5.75,0,3.84,3.84,0,0,0-3.65,3.78q-.09,2.7,0,5.4a4,4,0,0,0,4,3.83c.86,0,1.71,0,2.57,0s1.71,0,2.57,0a3.94,3.94,0,0,0,4-3.85C97.89,116.41,97.89,114.63,97.84,112.86ZM95.18,118a1.31,1.31,0,0,1-1.46,1.41c-.83,0-1.66,0-2.48,0s-1.54,0-2.31,0c-1,0-1.5-.48-1.51-1.44,0-1.63,0-3.25,0-4.87a1.3,1.3,0,0,1,1.37-1.42c1.68,0,3.37,0,5,0a1.28,1.28,0,0,1,1.34,1.44C95.21,114.71,95.21,116.34,95.18,118Z"/><path class="cls-2" d="M67.48,84.83a3.9,3.9,0,0,0,3.87,3.83q2.66,0,5.31,0A3.83,3.83,0,0,0,80.49,85c.08-1.89.08-3.78,0-5.67a3.8,3.8,0,0,0-3.72-3.68c-1.86-.06-3.72-.07-5.58,0a3.86,3.86,0,0,0-3.72,3.78c0,.89,0,1.77,0,2.66S67.45,83.91,67.48,84.83Zm2.67-5.18a1.22,1.22,0,0,1,1.3-1.36c1.69,0,3.38,0,5.06,0a1.22,1.22,0,0,1,1.34,1.33c0,.82,0,1.65,0,2.48h0c0,.83,0,1.66,0,2.49A1.28,1.28,0,0,1,76.41,86c-1.63,0-3.25,0-4.88,0a1.25,1.25,0,0,1-1.39-1.37C70.12,83,70.12,81.31,70.15,79.65Z"/><path class="cls-2" d="M94,92.32c-1.83-.08-3.67-.08-5.5,0a3.89,3.89,0,0,0-3.78,3.83c-.05,1.77-.05,3.55,0,5.32a3.94,3.94,0,0,0,3.93,3.88c.86,0,1.72,0,2.57,0s1.78,0,2.66,0a4,4,0,0,0,3.92-3.9c0-1.74,0-3.49,0-5.23A3.89,3.89,0,0,0,94,92.32Zm1.14,8.94a1.32,1.32,0,0,1-1.45,1.43c-.82,0-1.65,0-2.48,0h0c-.82,0-1.65,0-2.48,0a1.27,1.27,0,0,1-1.35-1.33c0-1.68,0-3.37,0-5A1.26,1.26,0,0,1,88.78,95c1.68,0,3.36,0,5,0a1.28,1.28,0,0,1,1.36,1.42C95.21,98,95.21,99.64,95.18,101.26Z"/><path class="cls-2" d="M80.5,96.08a3.81,3.81,0,0,0-3.73-3.76c-1.83-.08-3.67-.08-5.5,0a3.85,3.85,0,0,0-3.79,3.89c0,.86,0,1.71,0,2.57h0c0,.92,0,1.83,0,2.75a3.88,3.88,0,0,0,3.79,3.81c1.8,0,3.61,0,5.41,0a3.84,3.84,0,0,0,3.82-3.77Q80.6,98.82,80.5,96.08Zm-2.64,5.16c0,1-.48,1.43-1.42,1.44-1.63,0-3.25,0-4.88,0a1.28,1.28,0,0,1-1.42-1.43q0-2.44,0-4.89A1.25,1.25,0,0,1,71.51,95c1.66,0,3.32,0,5,0a1.26,1.26,0,0,1,1.38,1.39c0,.83,0,1.66,0,2.49S77.89,100.44,77.86,101.24Z"/><path class="cls-2" d="M67.49,118.31A3.89,3.89,0,0,0,71.28,122c1.8,0,3.61,0,5.41,0a3.84,3.84,0,0,0,3.81-3.69c.07-1.89.07-3.79,0-5.67A3.73,3.73,0,0,0,77,109a52.57,52.57,0,0,0-6,0,3.81,3.81,0,0,0-3.52,3.78c0,.89,0,1.78,0,2.66h0C67.48,116.42,67.45,117.36,67.49,118.31Zm2.65-5.25c0-.91.45-1.4,1.35-1.42,1.68,0,3.37,0,5.05,0A1.25,1.25,0,0,1,77.86,113c0,1.68,0,3.37,0,5a1.23,1.23,0,0,1-1.35,1.31q-2.52,0-5,0A1.24,1.24,0,0,1,70.14,118c0-.85,0-1.71,0-2.56S70.12,113.85,70.14,113.06Z"/></svg>