<svg id="Layer_1" data-name="Layer 1" xmlns="http://www.w3.org/2000/svg" viewBox="0 0 200 200"><defs><style>.cls-1{fill:#e6c45c;stroke:#f8efd2;stroke-miterlimit:10;stroke-width:6px;}.cls-2{fill:#575756;}</style></defs><circle class="cls-1" cx="100" cy="100" r="94.22"/><path class="cls-2" d="M140.81,130.72c-.87,0-1.37.68-1.37,1.82,0,3.21,0,6.42,0,9.62,0,2.57-1.22,3.78-3.81,3.78H64.42c-2.66,0-3.86-1.18-3.86-3.82V103.91c0-2,.54-2.49,2.5-2.49h73.87c2,0,2.5.54,2.5,2.48v20.87a6,6,0,0,0,0,1,1.39,1.39,0,0,0,2.71.26,2.9,2.9,0,0,0,.12-.93c0-7.18,0-14.36,0-21.54a12.93,12.93,0,0,0-.86-3.05,1.21,1.21,0,0,1,0-.88,5.72,5.72,0,0,0,.92-3.34q0-19.2,0-38.4c0-4.14-2.51-6.63-6.65-6.63H79.88c-1.5,0-2.16.42-2.19,1.38s.68,1.48,2.2,1.48h55.56c2.85,0,4,1.13,4,4V95.89c0,2.23-.45,2.69-2.67,2.69h-28.4q-22.68,0-45.37,0c-1.81,0-2.43-.57-2.43-2.27V57.62a3.22,3.22,0,0,1,3.55-3.55H72c1.12,0,1.79-.52,1.81-1.39s-.66-1.46-1.82-1.46H64.09a6.07,6.07,0,0,0-6.38,6.41q0,19.4,0,38.79a3.28,3.28,0,0,0,.22,1.68,3.12,3.12,0,0,1,0,3.82,3.23,3.23,0,0,0-.22,1.67q0,19.4,0,38.79a6.13,6.13,0,0,0,3.77,6c.43.18.89.31,1.34.46h74.35a.85.85,0,0,1,.25-.13,6.08,6.08,0,0,0,4.87-6.4q0-4.86,0-9.72C142.28,131.39,141.7,130.7,140.81,130.72Z"/><path class="cls-2" d="M68.12,104.77c-2.23,0-3.2,1-3.2,3.18V139.5c0,2.09,1,3.08,3.09,3.09H90.69c2.17,0,3.16-1,3.16-3.13q0-15.78,0-31.54c0-2.16-1-3.15-3.15-3.15Zm22.8,34.91H67.85v-32H90.92Z"/><path class="cls-2" d="M118.39,85.43c.35-.85.62-1.73,1-2.56a1.22,1.22,0,0,1,.85-.61c2.45-.05,4.89-.05,7.34,0a1.19,1.19,0,0,1,.86.61c.41.88.71,1.83,1.08,2.74a1.33,1.33,0,0,0,1.62.85,1.36,1.36,0,0,0,1.1-1.47,3.86,3.86,0,0,0-.16-.63q-3.18-8.46-6.37-16.91A1.81,1.81,0,0,0,124,66.13a1.77,1.77,0,0,0-1.73,1.26q-3.25,8.53-6.5,17.06a1.43,1.43,0,1,0,2.67,1ZM124,70.86c1.11,2.93,2.13,5.64,3.2,8.45h-6.41C121.79,76.54,122.82,73.82,124,70.86Z"/><path class="cls-2" d="M107,82.91a4.68,4.68,0,0,1-2,.69,6.58,6.58,0,0,1-5.36-2,1.47,1.47,0,0,0-2.19-.13,1.45,1.45,0,0,0,.22,2.18,9.32,9.32,0,0,0,6.07,2.8,7.66,7.66,0,0,0,5.67-1.8,5.11,5.11,0,0,0-.22-8.1,11.49,11.49,0,0,0-2.38-1.37c-1.54-.68-3.12-1.26-4.67-1.91a1.91,1.91,0,0,1-.81-3,4,4,0,0,1,1.81-1.11,6,6,0,0,1,5,1.15c1,.63,1.76.59,2.27-.12s.34-1.64-.67-2.23a15.75,15.75,0,0,0-3.17-1.48,7,7,0,0,0-5.89.58,4.89,4.89,0,0,0-2.63,4.81A4.54,4.54,0,0,0,101.17,76c1.06.41,2.11.85,3.16,1.3A18.56,18.56,0,0,1,107,78.53,2.41,2.41,0,0,1,107,82.91Z"/><path class="cls-2" d="M68.67,66.22c-.84.31-1.14,1-.79,2q2.93,8.46,5.86,16.9a1.84,1.84,0,0,0,3.54,0q2.84-8.52,5.65-17.06a1.39,1.39,0,0,0-.84-1.86,1.42,1.42,0,0,0-1.87,1c-.23.62-.42,1.26-.63,1.89-1.34,4-2.68,8-4.08,12.29-.18-.46-.27-.69-.35-.93-1.52-4.37-3-8.74-4.56-13.11C70.23,66.32,69.51,65.91,68.67,66.22Z"/><path class="cls-2" d="M134.17,107.92c-.23-.21-.73-.13-1.1-.13h-31.9c-1.06,0-1.7.51-1.73,1.35s.63,1.46,1.71,1.5h31.71a2.21,2.21,0,0,0,1.2-.15c.42-.3.92-.81.94-1.24A2.13,2.13,0,0,0,134.17,107.92Z"/><path class="cls-2" d="M124.1,129.53H111.72c-3.58,0-7.17,0-10.75,0a1.42,1.42,0,0,0-1.53,1.36,1.46,1.46,0,0,0,1.44,1.47,8,8,0,0,0,.85,0h19.33c1,0,2.09,0,3.14,0a1.42,1.42,0,0,0,1.55-1.43C125.75,130.05,125.17,129.53,124.1,129.53Z"/><path class="cls-2" d="M112.68,136.76h-9.43c-.82,0-1.65,0-2.47,0a1.4,1.4,0,0,0-.27,2.75,3.88,3.88,0,0,0,1,.09h22a6.43,6.43,0,0,0,.76,0,1.42,1.42,0,0,0,1.46-1.43,1.37,1.37,0,0,0-1.55-1.41Z"/><path class="cls-2" d="M90,86.49c.91,0,1.4-.6,1.4-1.76q0-4.19,0-8.38c0-2.82,0-5.65,0-8.47,0-1.11-.55-1.77-1.42-1.76s-1.43.67-1.43,1.78q0,8.43,0,16.85C88.59,85.88,89.13,86.5,90,86.49Z"/><path class="cls-2" d="M101.15,117.88c2.92,0,5.83,0,8.75,0a1.51,1.51,0,0,0,1.69-1.43c0-.84-.64-1.41-1.67-1.42-1.46,0-2.92,0-4.38,0s-2.92,0-4.38,0c-1,0-1.69.52-1.72,1.36S100.07,117.87,101.15,117.88Z"/><path class="cls-2" d="M129.05,115c-1.49,0-3,0-4.47,0-1,0-1.67.58-1.66,1.42a1.46,1.46,0,0,0,1.6,1.42q4.47,0,8.94,0a1.44,1.44,0,0,0,1.6-1.49c0-.81-.65-1.34-1.63-1.35C132,115,130.51,115,129.05,115Z"/><path class="cls-2" d="M101.18,125.12h8.66c1.08,0,1.76-.6,1.74-1.46s-.66-1.38-1.79-1.39h-8.56c-1.12,0-1.78.53-1.79,1.39S100.09,125.12,101.18,125.12Z"/><path class="cls-2" d="M133.45,125.12a1.45,1.45,0,0,0,1.61-1.48c0-.81-.64-1.35-1.62-1.37h-4.37c-1.52,0-3,0-4.57,0a1.43,1.43,0,0,0-1.58,1.41,1.47,1.47,0,0,0,1.58,1.43Q129,125.15,133.45,125.12Z"/><path class="cls-2" d="M76.46,138.08c1.87,0,3.75,0,5.62,0a6.78,6.78,0,0,0,7.11-7.14c0-2,0-4.06,0-6.1h0c0-2.22.08-4.45,0-6.66a9,9,0,0,0-5.32-8,10.66,10.66,0,0,0-5.29-.88c-4.49.15-8.55,3.62-8.82,8.07a142.53,142.53,0,0,0-.08,14.47C69.79,135.53,72.73,138,76.46,138.08Zm3.91-25.89a6.49,6.49,0,0,1,5.86,7.65c-3.44-.62-6.61-1.62-8.64-4.8a2.42,2.42,0,0,0-1.38-.93c-.71-.15-1.11.43-1.39,1a8.4,8.4,0,0,1-2.36,3.66C72.34,114.63,75.62,111.94,80.37,112.19Zm-.6,17.88a6.54,6.54,0,0,1-6.86-6.28,2.54,2.54,0,0,1,1.2-2.66,15.33,15.33,0,0,0,2.51-2.62,16.31,16.31,0,0,0,9.15,4.15A6.5,6.5,0,0,1,79.77,130.07ZM72.48,130c4.66,4.38,10.35,3.42,13.65.09a3.81,3.81,0,0,1-2.8,5,19.29,19.29,0,0,1-3.32.16c-1,0-2,0-3,0C73.74,135.22,72.11,133.4,72.48,130Z"/></svg>