<svg id="Layer_1" data-name="Layer 1" xmlns="http://www.w3.org/2000/svg" viewBox="0 0 200 200"><defs><style>.cls-1{fill:#e6c45c;stroke:#f8efd2;stroke-miterlimit:10;stroke-width:6px;}.cls-2{fill:#575756;}</style></defs><circle class="cls-1" cx="100" cy="100" r="94.22"/><path class="cls-2" d="M132.11,127c1.92,1.9,3.64,1.91,5.54,0q2.49-2.47,5-5c1.81-1.82,1.82-3.59,0-5.41s-3.8-3.84-5.74-5.72a2.35,2.35,0,0,1-.76-1.82q0-8.44,0-16.9c0-2.42-1.26-3.65-3.66-3.66s-4.94,0-7.41,0-3.62,1.26-3.64,3.67c0,1,0,1.94,0,2.87L116.26,90c.12-.13.28-.34.46-.53a22.94,22.94,0,0,0-12.23-38.29c-1.45-.28-2.93-.39-4.39-.58h-.2c-.42,0-.85.09-1.26.17a42.59,42.59,0,0,0-5.89,1.15,22.94,22.94,0,0,0-9.4,37.63c.17.18.31.39.61.76a9,9,0,0,0-.91.68L65.92,108.12c-2.87,2.87-5.74,5.73-8.6,8.61-1.76,1.76-1.74,3.56,0,5.33s3.4,3.4,5.11,5.1,3.54,1.73,5.33,0c.26-.26.53-.5.93-.87v19.87h-1c-1.85,0-3.69,0-5.54,0a1.6,1.6,0,0,0-.09,3.19,9.74,9.74,0,0,0,1.08,0h73.76a2.66,2.66,0,0,0,1.17-.08,2.8,2.8,0,0,0,1.26-1.08c.46-1-.41-2.05-1.66-2.07-2.11,0-4.21,0-6.39,0V126.28Zm-7.48-35.17h8.25v14.93c-.28-.23-.5-.38-.69-.56-2.33-2.33-4.67-4.64-7-7a2.16,2.16,0,0,1-.57-1.36C124.6,95.9,124.63,93.93,124.63,91.86ZM80.26,73.72a19.74,19.74,0,1,1,19.81,19.79A19.79,19.79,0,0,1,80.26,73.72Zm-15.2,51.09-5.49-5.51L86.36,92.52l7.41,3.56Zm41.53,21.24H93.49a69.1,69.1,0,0,1,.05-7.49,6.41,6.41,0,0,1,6.66-5.64,6.56,6.56,0,0,1,6.37,6.13C106.71,141.34,106.59,143.65,106.59,146.05ZM128,145v1.12H109.83c0-.85,0-1.66,0-2.47a40,40,0,0,0-.23-6,9.79,9.79,0,0,0-19.39,1.64c-.06,1.91,0,3.82,0,5.73v1.12H72.06c0-.37,0-.69,0-1,0-7.08,0-14.17,0-21.25a2.37,2.37,0,0,1,.63-1.52Q85,109.84,97.46,97.44a2.87,2.87,0,0,1,1.88-.78c1.88-.24,3.06.6,4.32,1.87,7.82,7.93,15.72,15.78,23.62,23.64a2.22,2.22,0,0,1,.73,1.72C128,130.91,128,137.93,128,145ZM106.2,96.09l7.51-3.6,26.8,26.79-5.58,5.6Z"/><path class="cls-2" d="M75.34,86.19c-1.65.94-3.33,1.83-4.92,2.86a1.37,1.37,0,0,0-.3,2,1.45,1.45,0,0,0,2,.66,42.36,42.36,0,0,0,4.74-2.79,2,2,0,0,0,.4-1.74c-.13-.48-.8-.81-1.12-1.1A4.38,4.38,0,0,0,75.34,86.19Z"/><path class="cls-2" d="M70.6,58.59c1.47.92,3,1.82,4.52,2.61,1.1.56,2.28-.27,2.25-1.74-.1-.18-.24-.7-.57-.91-1.52-1-3.08-1.88-4.67-2.72a1.55,1.55,0,0,0-2,.68A1.51,1.51,0,0,0,70.6,58.59Z"/><path class="cls-2" d="M123.9,61.45a4.92,4.92,0,0,0,1-.26c1.48-.83,3-1.66,4.42-2.56a1.52,1.52,0,0,0,.54-2.15,1.57,1.57,0,0,0-2.06-.64c-1.56.83-3.09,1.73-4.6,2.66a1.37,1.37,0,0,0-.49,1.83A4.89,4.89,0,0,0,123.9,61.45Z"/><path class="cls-2" d="M67.11,75.33c.82,0,1.65,0,2.47,0s1.59,0,2.38,0a1.54,1.54,0,0,0,1.67-1.56A1.52,1.52,0,0,0,72,72.15q-2.48,0-5,0A1.54,1.54,0,0,0,65.5,73.7,1.56,1.56,0,0,0,67.11,75.33Z"/><path class="cls-2" d="M127.94,72.15a1.59,1.59,0,0,0,0,3.18c1.62,0,3.23,0,4.84,0a1.56,1.56,0,0,0,1.68-1.56,1.58,1.58,0,0,0-1.72-1.63c-.79,0-1.58,0-2.37,0h0C129.59,72.14,128.76,72.12,127.94,72.15Z"/><path class="cls-2" d="M147.71,146.14c-.53,0-1.05,0-1.58,0h-1.78a1.59,1.59,0,0,0-1.54,1.61,1.49,1.49,0,0,0,1.45,1.57,32.34,32.34,0,0,0,3.55,0,1.55,1.55,0,0,0,1.51-1.63A1.64,1.64,0,0,0,147.71,146.14Z"/><path class="cls-2" d="M55.59,146.14c-.52,0-1.05,0-1.58,0s-1.18,0-1.77,0a1.62,1.62,0,0,0-1.56,1.61,1.55,1.55,0,0,0,1.47,1.56,35,35,0,0,0,3.55,0,1.51,1.51,0,0,0,1.49-1.64A1.58,1.58,0,0,0,55.59,146.14Z"/><path class="cls-2" d="M109.82,108.61c0-1.37-.55-2-1.9-2q-7.9,0-15.81,0c-1.36,0-1.93.58-1.93,1.93q0,7.9,0,15.82c0,1.4.56,1.94,2,1.94h15.61c1.49,0,2-.53,2-2,0-2.6,0-5.2,0-7.8S109.84,111.25,109.82,108.61ZM98.29,123H93.42v-4.83h4.87Zm0-8.21H93.43V110H98.3Zm3.39-4.84h4.85v4.84h-4.85Zm4.89,13h-4.87v-4.84h4.87Z"/><path class="cls-2" d="M98.36,83.26c-1.89-.37-2.9-1.56-3.3-3.72-.23-1.2-.93-1.8-1.93-1.63A1.71,1.71,0,0,0,91.83,80a7.68,7.68,0,0,0,5.69,6.51,1.47,1.47,0,0,1,1,.86,2.11,2.11,0,0,0,1.45,1,2.05,2.05,0,0,0,1.46-1,1.54,1.54,0,0,1,1.11-.89c3.83-1,6.33-4.92,5.4-8.53a7.53,7.53,0,0,0-5.57-5.6c-.28-.08-.71-.37-.71-.56-.05-2.53,0-5.06,0-7.6,1.8.27,2.91,1.53,3.3,3.65.22,1.24.88,1.83,1.87,1.69s1.52-1,1.34-2.26a7.65,7.65,0,0,0-5.7-6.38c-.5-.13-.8-.28-.94-.82A1.32,1.32,0,0,0,100,59a2.33,2.33,0,0,0-1.44,1.09,1.42,1.42,0,0,1-1,.84c-4.45,1.1-8,6.84-3.83,11.7a7.87,7.87,0,0,0,4.69,2.6v8Zm3.32-7.47a3.84,3.84,0,0,1,3.24,3.55,4,4,0,0,1-3.24,3.91Zm-3.37-4.07a3.94,3.94,0,0,1-3.23-3.6,4,4,0,0,1,3.23-3.91Z"/><path class="cls-2" d="M103.33,139.58a1.6,1.6,0,1,0,1.55,1.56A1.54,1.54,0,0,0,103.33,139.58Z"/></svg>